<?xml version="1.0" standalone="no"?>
<!DOCTYPE svg PUBLIC "-//W3C//DTD SVG 20010904//EN"
 "http://www.w3.org/TR/2001/REC-SVG-20010904/DTD/svg10.dtd">
<svg version="1.0" xmlns="http://www.w3.org/2000/svg"
 width="852.000000pt" height="704.000000pt" viewBox="0 0 852.000000 704.000000"
 preserveAspectRatio="xMidYMid meet">

<g transform="translate(0.000000,704.000000) scale(0.100000,-0.100000)"
fill="#000000" stroke="none">
<path d="M6465 6449 c-33 -4 -177 -12 -320 -18 -389 -17 -781 -70 -1227 -166
-564 -121 -1108 -326 -1598 -604 -69 -39 -126 -66 -128 -61 -2 4 47 120 109
257 149 332 210 475 205 480 -6 7 -170 -140 -330 -297 -237 -232 -467 -501
-615 -720 -280 -414 -485 -900 -572 -1358 -6 -35 -15 -60 -19 -55 -5 4 -17 37
-28 73 -41 135 -147 390 -162 390 -4 0 -8 -30 -9 -67 -1 -38 -11 -201 -21
-363 -31 -459 -26 -699 20 -971 26 -155 25 -221 -5 -316 -68 -217 -112 -487
-102 -628 3 -44 22 -138 42 -209 19 -71 34 -130 33 -132 -2 -1 -23 2 -48 6
-25 5 -82 9 -127 10 -114 0 -177 -24 -241 -95 -65 -71 -95 -155 -132 -369 -38
-217 -39 -318 -5 -441 14 -49 32 -146 40 -215 9 -81 23 -150 39 -194 23 -60
100 -199 155 -281 12 -17 21 -46 21 -67 l0 -38 167 0 168 0 -64 42 c-129 84
-253 221 -319 353 -146 292 -183 549 -112 778 27 87 46 102 129 102 79 0 141
-12 141 -27 0 -6 -29 -54 -65 -107 -78 -117 -95 -156 -95 -218 0 -44 13 -84
23 -73 3 3 27 50 55 105 27 56 66 120 85 143 20 23 45 67 56 98 24 63 20 79
-32 117 -41 31 -84 44 -172 52 -38 4 -72 8 -73 10 -9 9 64 138 90 160 72 61
224 59 257 -4 6 -10 13 -60 16 -112 9 -140 12 -151 56 -210 45 -59 94 -152
158 -299 33 -77 50 -103 90 -137 28 -24 52 -43 55 -43 13 0 4 119 -13 185 -22
81 -19 85 51 85 82 0 100 -42 113 -275 3 -55 11 -145 17 -200 14 -122 5 -156
-69 -267 -27 -40 -64 -100 -83 -132 -18 -32 -46 -74 -63 -92 l-29 -34 375 0
374 0 -35 87 c-23 57 -50 161 -78 301 -24 118 -50 225 -59 238 -24 37 -88 64
-179 76 l-84 11 -4 108 c-4 93 -8 114 -34 165 -60 121 -146 152 -260 94 -32
-16 -64 -30 -70 -30 -6 0 -25 27 -43 59 -26 49 -33 76 -40 163 -10 105 -10
198 -1 198 3 0 22 -25 43 -55 104 -149 294 -317 567 -498 237 -158 350 -205
588 -246 63 -10 115 -21 118 -24 4 -3 -75 -131 -322 -518 -41 -64 -74 -119
-74 -123 0 -3 90 -6 200 -6 l199 0 38 33 c48 41 91 90 124 139 15 22 29 36 31
31 7 -11 37 -141 40 -173 l3 -25 693 -3 c380 -1 692 0 692 3 0 12 -43 91 -66
122 -14 18 -62 65 -107 104 -93 82 -99 91 -122 178 -36 139 -55 161 -161 190
l-42 11 -7 96 c-4 52 -5 98 -2 100 3 3 47 -10 99 -29 170 -64 408 -106 708
-127 178 -12 390 -13 408 -1 11 7 9 17 -13 51 -14 23 -25 43 -23 45 2 1 44 -3
93 -11 50 -7 182 -23 295 -34 113 -11 265 -28 338 -37 131 -15 134 -15 210 6
124 35 195 63 180 71 -7 4 -78 15 -158 24 -165 20 -275 43 -376 81 -74 28
-384 192 -384 204 0 4 15 6 33 4 17 -1 163 -14 322 -29 467 -42 647 -36 981
31 233 47 474 149 474 201 0 27 -154 153 -291 238 -325 202 -638 334 -906 381
-133 24 -139 27 -58 37 367 45 640 99 676 134 10 11 21 33 25 49 13 65 -70
116 -301 185 -77 23 -144 45 -148 49 -4 5 36 61 91 127 214 259 315 409 409
604 36 74 73 143 82 154 9 10 72 46 141 81 153 77 302 163 480 279 74 48 209
135 299 192 187 120 316 214 412 303 68 62 96 106 106 166 5 31 0 40 -52 94
-92 97 -155 139 -307 206 -447 197 -889 323 -1362 388 -141 19 -206 22 -513
22 -193 0 -351 1 -350 2 1 1 44 23 96 49 102 51 161 102 179 154 l12 33 -138
-6 c-129 -6 -359 -44 -459 -78 -19 -6 -36 -9 -38 -7 -3 2 66 80 151 173 432
470 785 902 850 1040 23 48 30 107 18 139 -7 17 -9 17 -99 5z m-185 -125 c0
-6 -134 -164 -153 -180 -7 -6 -35 -23 -62 -39 -28 -16 -120 -75 -205 -131
-114 -76 -245 -148 -495 -272 -511 -256 -515 -258 -935 -418 -162 -61 -371
-142 -463 -178 -92 -36 -173 -66 -180 -66 -6 0 7 19 29 43 23 23 112 130 200
237 192 236 212 259 334 380 101 102 207 186 305 243 117 68 492 175 760 217
72 11 177 33 235 49 227 63 630 137 630 115z m-3144 -545 c-36 -96 -76 -213
-90 -262 -27 -92 -60 -256 -54 -263 3 -2 53 33 113 77 59 44 147 103 194 131
95 56 258 131 274 125 21 -7 -112 -154 -280 -309 -72 -66 -443 -533 -497 -626
-4 -7 47 29 114 80 288 220 450 326 651 425 59 29 111 53 114 53 15 0 0 -29
-43 -84 -133 -170 -214 -278 -209 -282 2 -3 116 20 253 51 292 66 401 81 662
91 l193 7 57 37 c243 156 484 283 632 333 92 31 229 60 265 55 27 -3 26 -5
-40 -76 -127 -136 -340 -295 -510 -380 -142 -70 -176 -81 -785 -252 -102 -28
-191 -58 -199 -65 -12 -12 -12 -13 5 -10 10 2 48 9 84 15 36 6 188 41 338 76
290 68 518 112 529 100 8 -8 -17 -28 -92 -69 -77 -42 -152 -73 -350 -143 -87
-30 -222 -85 -298 -122 -159 -75 -161 -66 28 -114 113 -29 124 -30 190 -19 64
11 221 68 351 127 71 33 191 71 271 88 154 33 523 67 523 48 0 -12 -134 -73
-240 -110 -47 -16 -170 -50 -275 -76 -299 -73 -426 -109 -418 -117 4 -4 35
-12 68 -18 33 -5 170 -32 305 -60 393 -81 367 -79 517 -37 477 133 1057 206
1758 221 160 3 351 11 425 16 97 8 160 8 225 0 99 -12 385 -80 385 -92 0 -22
-280 -165 -313 -160 -15 3 -478 -98 -650 -142 -139 -34 -163 -43 -140 -49 15
-5 146 -11 291 -15 161 -4 262 -10 262 -16 0 -5 -68 -76 -152 -156 -84 -80
-232 -225 -329 -322 -100 -100 -206 -196 -246 -222 -70 -47 -153 -87 -179 -87
-8 0 -14 -5 -14 -11 0 -5 -4 -8 -8 -5 -10 6 -284 -20 -367 -34 -33 -6 -130
-31 -215 -55 -219 -62 -295 -71 -675 -80 -88 -2 -171 -4 -184 -4 -40 -1 -20
-9 115 -46 131 -36 221 -78 361 -169 142 -91 311 -165 513 -222 52 -14 96 -28
98 -29 1 -1 -20 -49 -47 -106 -28 -56 -49 -103 -48 -104 1 -1 80 -39 175 -85
159 -77 171 -85 145 -93 -30 -8 -62 -10 -438 -27 -306 -13 -327 -15 -465 -50
-143 -36 -317 -56 -335 -39 -3 3 13 42 36 87 51 102 68 189 49 258 -10 38 -27
63 -75 110 -102 100 -256 171 -455 209 -47 9 -95 18 -106 20 -19 4 -22 14 -26
73 -4 52 -15 91 -45 158 -52 112 -65 156 -103 329 -42 190 -98 356 -171 503
-56 113 -87 154 -74 100 3 -13 16 -70 29 -128 55 -237 89 -436 141 -825 14
-104 27 -201 30 -215 l5 -25 -18 25 c-80 114 -242 321 -348 445 -126 149 -589
625 -607 625 -5 0 -7 -10 -4 -22 13 -52 48 -321 45 -344 -3 -23 -13 -12 -73
77 -229 337 -451 575 -686 735 -80 55 -102 65 -112 55 -10 -10 -4 -19 28 -44
151 -120 301 -273 442 -449 75 -94 188 -254 199 -281 10 -28 -263 -69 -473
-71 -79 0 -143 -4 -143 -8 0 -4 24 -21 53 -38 50 -30 55 -31 147 -27 77 4 235
33 446 82 28 6 83 -76 201 -298 47 -89 118 -211 157 -271 l71 -108 3 53 c5 85
-18 275 -44 366 -13 45 -46 144 -74 219 -28 75 -49 138 -47 140 7 7 271 -275
489 -521 103 -117 312 -387 332 -430 13 -27 36 -97 52 -155 15 -58 34 -121 42
-140 l15 -35 8 30 c8 27 19 105 35 231 l5 41 52 -9 c85 -16 230 -65 427 -145
102 -42 189 -80 194 -84 12 -10 -81 -200 -143 -292 -111 -165 -250 -312 -581
-615 -80 -73 -152 -140 -160 -150 -9 -9 -48 -53 -88 -98 -64 -72 -78 -82 -139
-104 -85 -29 -169 -68 -181 -83 -10 -13 -32 -214 -32 -290 0 -53 1 -53 -85
-32 -199 48 -361 -17 -593 -239 l-54 -51 7 45 c14 86 46 195 75 259 39 82 38
124 -1 187 -17 27 -38 55 -47 61 -21 17 -101 16 -380 -3 -179 -13 -255 -14
-331 -6 -97 10 -99 11 -219 84 -159 96 -302 202 -412 305 -156 147 -231 269
-294 475 -55 183 -68 268 -55 362 6 44 12 83 14 86 2 3 8 50 15 105 12 100 57
332 105 544 14 63 25 135 23 160 l-3 46 -18 -40 c-9 -22 -27 -62 -40 -88 l-22
-49 0 540 0 540 48 -81 c26 -45 52 -98 58 -117 19 -58 25 -54 49 27 45 157 83
258 164 446 116 268 163 366 189 401 13 17 56 96 95 176 75 154 203 356 272
429 58 62 115 144 210 306 101 170 258 398 268 390 2 -2 -26 -81 -62 -176z
m3279 -4158 c39 -11 123 -43 187 -70 65 -28 227 -89 360 -135 252 -87 377
-134 391 -146 14 -12 -140 -22 -227 -15 -44 4 -108 13 -141 20 -71 16 -232 31
-485 45 -101 6 -247 19 -325 29 -77 11 -207 27 -290 36 -274 29 -597 107 -534
129 123 43 480 101 710 115 216 14 279 12 354 -8z m-870 -291 c407 -43 487
-50 680 -60 234 -12 405 -29 405 -41 0 -5 -8 -9 -18 -9 -38 0 -1115 -110
-1119 -114 -14 -13 16 -53 75 -99 77 -60 69 -68 -42 -43 -37 9 -78 16 -91 16
-13 0 -25 4 -27 8 -3 8 -32 21 -268 119 -85 35 -160 61 -168 58 -7 -2 -11 -1
-8 3 3 5 -20 17 -50 27 -30 10 -54 22 -54 26 0 16 221 102 304 119 70 14 183
11 381 -10z m-649 -368 c35 -2 64 -9 64 -14 0 -5 18 -36 41 -69 22 -33 39 -62
36 -65 -2 -2 -60 9 -128 25 -196 47 -336 71 -441 78 -54 3 -98 9 -98 13 0 8
98 78 140 101 14 7 50 18 80 24 l55 12 93 -50 c76 -40 105 -50 158 -55z"/>
<path d="M3025 4575 c-22 -8 -41 -15 -42 -15 -1 0 -7 -9 -13 -20 -13 -24 0
-54 27 -65 10 -3 79 -18 153 -31 179 -33 223 -48 355 -123 22 -13 60 -35 85
-49 l45 -26 -20 24 c-98 119 -184 190 -302 249 -75 38 -182 71 -228 70 -11 0
-38 -6 -60 -14z"/>
<path d="M2565 4458 c-63 -36 -232 -174 -310 -252 -100 -100 -141 -169 -194
-319 -34 -97 -67 -276 -76 -407 -6 -99 -11 -105 80 100 80 178 147 295 312
543 l146 217 40 0 c43 0 166 27 180 39 7 7 -50 58 -90 79 -27 15 -62 15 -88 0z"/>
<path d="M2680 3466 c0 -16 43 -89 72 -121 38 -44 88 -73 88 -51 0 27 -65 110
-112 144 -27 19 -48 31 -48 28z"/>
<path d="M2287 3419 c-78 -18 -293 -150 -255 -157 26 -5 125 26 179 55 45 24
128 99 118 106 -2 2 -21 0 -42 -4z"/>
<path d="M3160 3159 c-69 -12 -143 -36 -189 -62 -46 -26 -119 -94 -136 -128
-14 -26 -13 -27 17 -33 26 -5 29 -9 24 -28 -4 -13 -9 -36 -13 -51 -6 -28 -5
-28 31 -22 l36 7 0 -70 0 -70 109 -26 c60 -14 126 -28 148 -31 l38 -6 24 56
c40 93 128 145 248 145 l54 0 -3 33 c-2 26 -7 31 -23 29 -11 -2 -52 -6 -91 -9
-57 -4 -74 -2 -87 12 -21 20 -22 58 -2 75 19 16 275 -21 384 -56 42 -13 80
-24 85 -24 10 0 -51 78 -113 143 -86 91 -195 127 -376 126 -60 -1 -135 -5
-165 -10z"/>
<path d="M2060 2833 c-38 -6 -120 -36 -120 -44 0 -4 5 -11 10 -14 6 -3 10 -19
10 -35 l0 -28 63 20 c36 11 92 19 134 20 67 0 72 1 63 18 -21 40 -102 71 -160
63z"/>
<path d="M3445 2776 c-86 -27 -145 -77 -145 -121 0 -14 7 -16 43 -10 91 14
162 62 181 123 6 18 4 22 -16 21 -13 0 -41 -6 -63 -13z"/>
<path d="M2302 2230 c-90 -24 -183 -73 -236 -122 l-39 -38 7 -72 c14 -148 65
-277 147 -368 l40 -45 -6 80 c-8 102 -18 141 -65 240 -62 129 -62 130 1 160
191 88 478 66 677 -52 61 -36 62 -38 62 -80 l0 -43 -77 6 -78 6 45 -41 c62
-56 77 -58 150 -22 34 17 64 31 66 31 9 0 64 -122 86 -190 31 -99 33 -285 4
-370 -34 -100 -92 -160 -208 -217 -43 -20 -74 -41 -70 -45 4 -4 35 -11 69 -14
54 -6 66 -4 113 22 139 75 206 227 198 444 -4 95 -10 131 -36 207 -55 161
-142 312 -224 390 -44 42 -147 96 -233 123 -103 32 -293 37 -393 10z"/>
<path d="M4865 2141 c-139 -25 -205 -46 -252 -80 -40 -29 -74 -70 -86 -103 -9
-24 19 -23 109 2 80 22 462 174 478 190 16 16 -136 11 -249 -9z"/>
<path d="M903 5634 c-61 -30 -117 -89 -146 -153 -27 -61 -26 -164 2 -218 42
-83 136 -142 225 -143 60 0 150 45 201 101 86 95 67 266 -42 371 -74 72 -153
86 -240 42z m165 -127 c23 -21 42 -74 42 -117 0 -54 -23 -106 -66 -149 -40
-40 -46 -43 -81 -37 -111 20 -152 130 -93 246 16 32 33 47 73 65 57 27 88 25
125 -8z"/>
<path d="M431 4529 c-54 -39 -74 -86 -69 -161 5 -64 23 -92 75 -114 85 -36
163 -2 209 91 24 50 26 60 15 94 -33 111 -143 154 -230 90z m136 -65 c22 -22
25 -32 20 -71 -7 -62 -35 -97 -80 -101 -51 -4 -77 24 -77 84 0 39 5 51 34 80
41 41 68 43 103 8z"/>
<path d="M829 4071 c6 -10 27 -31 48 -47 75 -57 126 -110 144 -148 21 -48 15
-71 -76 -296 -83 -205 -115 -308 -122 -400 -11 -140 33 -230 155 -320 128 -95
302 -165 390 -158 35 3 30 6 -83 57 -214 97 -301 159 -356 256 -58 100 -35
257 73 508 74 172 108 270 108 311 0 42 -35 110 -76 146 -37 32 -113 73 -176
96 -36 12 -38 12 -29 -5z"/>
<path d="M1596 669 c52 -104 124 -206 191 -270 36 -35 68 -59 70 -53 7 22 -39
125 -84 184 -42 56 -170 180 -194 189 -6 2 2 -21 17 -50z"/>
</g>
</svg>
